<svg width="40" height="40" viewBox="0 0 40 40" fill="none" xmlns="http://www.w3.org/2000/svg">
<path d="M18.6685 23.1342C18.6685 19.2673 15.1541 16.1215 10.8341 16.1215C6.51432 16.1215 3 19.2673 3 23.1342C3 24.2673 3.30204 25.3384 3.83757 26.2866L10.8341 39.202L17.832 26.2846C18.3667 25.3368 18.6685 24.2665 18.6685 23.1342ZM10.8341 27.015C8.44363 27.015 6.49869 25.274 6.49869 23.1342C6.49869 20.9943 8.44363 19.2533 10.8341 19.2533C13.2247 19.2533 15.1696 20.9943 15.1696 23.1342C15.1696 25.274 13.2247 27.015 10.8341 27.015Z" fill="#6A7777"/>
<path d="M33.0329 1C30.8455 1 29.0659 2.59297 29.0659 4.55099C29.0659 5.12481 29.2189 5.66714 29.49 6.14738L33.0329 12.6874L36.5764 6.14635C36.8472 5.66642 37 5.12441 37 4.55107C37 2.59297 35.2202 1 33.0329 1ZM33.0329 6.51617C31.8224 6.51617 30.8375 5.63462 30.8375 4.55099C30.8375 3.46744 31.8224 2.58582 33.0329 2.58582C34.2433 2.58582 35.2282 3.46744 35.2282 4.55099C35.2282 5.63462 34.2433 6.51617 33.0329 6.51617Z" fill="#6A7777"/>
<path d="M29.5778 24.0373C29.4168 23.3598 29.2078 22.6958 28.9445 22.0439C28.5915 21.1705 28.1683 20.3169 27.844 19.4336C27.2381 17.7823 28.2834 16.4043 28.4799 16.1538C28.8241 15.7152 29.2266 15.3127 29.6513 14.9357C30.469 14.2101 31.3708 13.5614 32.3142 12.964C32.1973 12.8019 32.0841 12.638 31.9763 12.4712C30.6193 12.9474 23.6411 15.1305 23.8112 19.9535C23.8453 20.9204 24.2626 21.8406 24.5198 22.7778C24.6437 23.2294 24.7512 23.685 24.8169 24.1466C24.8452 24.3544 24.8626 24.5634 24.8817 24.7722C24.8822 24.7706 24.882 24.7695 24.8809 24.7686C24.8816 24.7747 24.8989 25.4305 24.8664 25.7146C24.7645 26.6041 24.6178 27.5029 24.1989 28.3188C23.8093 29.0775 23.2214 29.7372 22.4943 30.2587C20.8322 31.4507 18.6298 31.9272 16.5518 32.1188C16.4528 32.1281 16.3539 32.1361 16.255 32.1438L12.5446 38.9926C14.3753 38.8908 16.2013 38.6665 17.9829 38.2741C20.0794 37.8121 22.1226 37.1143 23.9533 36.0801C25.7825 35.0469 27.3555 33.6492 28.4026 31.9475C29.4981 30.1675 29.937 28.1286 29.8436 26.1082C29.8119 25.4181 29.7387 24.7146 29.5778 24.0373Z" fill="#6A7777"/>
</svg>
