<svg width="40" height="40" viewBox="0 0 40 40" fill="none" xmlns="http://www.w3.org/2000/svg">
<path d="M29.2057 20.8625L29.2032 20.8602C28.0585 19.7577 26.6167 19.1839 25.1497 19.2248L25.1358 19.2252V19.225H14.7912C14.2438 19.2397 13.7013 19.1278 13.1967 18.8982C12.6902 18.6678 12.2343 18.3247 11.8544 17.8935C11.4745 17.4624 11.1775 16.9515 10.978 16.3929C10.7804 15.8395 10.6817 15.2482 10.6864 14.6533C10.6748 14.4295 10.6751 14.205 10.6873 13.9812L10.6885 13.9592L10.6916 13.9374C10.8456 12.8652 11.3365 11.881 12.0885 11.1761C12.8396 10.472 13.8011 10.0951 14.7949 10.1359H24.9807H24.9813V10.6359C25.813 10.635 26.6181 10.9737 27.2527 11.5914C27.8874 12.2091 28.3105 13.0657 28.4465 14.0085L29.2057 20.8625ZM29.2057 20.8625C29.9158 21.5371 30.4924 22.3875 30.8906 23.356C31.2887 24.3243 31.4974 25.384 31.5 26.4594C31.5 26.4597 31.5 26.4599 31.5 26.4602L31.5 27.296C31.3164 29.0878 30.5688 30.7285 29.4137 31.9124C28.2551 33.1 26.7706 33.7438 25.2461 33.7438H21.494H20.994V34.2438V39.5H19.235V34.2438V33.7438H18.735H15.0491C13.5246 33.7438 12.0401 33.1 10.8815 31.9124C9.84021 30.8452 9.13015 29.4069 8.86578 27.8212H11.2341C11.4691 28.6483 11.9119 29.3907 12.5206 29.9502C13.2284 30.6006 14.1193 30.9649 15.0487 30.9655H15.0491H25.4227H25.423C26.3524 30.9649 27.2434 30.6006 27.9511 29.9502C28.6573 29.3011 29.1403 28.4058 29.3344 27.4176L29.3399 27.3895L29.3422 27.361C29.3667 27.0543 29.3672 26.7458 29.3437 26.4391C29.3416 25.8501 29.2381 25.2661 29.0379 24.7202C28.8354 24.168 28.5372 23.6638 28.158 23.2387C27.7786 22.8135 27.3249 22.4755 26.8217 22.2487C26.3205 22.0227 25.7822 21.9126 25.2392 21.9272H14.7842C13.1439 21.9272 11.5541 21.1791 10.37 19.8188C9.78337 19.1448 9.31496 18.341 8.99441 17.4519C8.67386 16.5628 8.50826 15.608 8.50826 14.6424V14.6294L8.50758 14.6164C8.49755 14.4241 8.49747 14.2314 8.50734 14.0391C8.6393 12.1919 9.37053 10.4815 10.5398 9.24316C11.7083 8.00566 13.2248 7.33215 14.7842 7.33225H14.7842H18.735H19.235V6.83225V1.5H20.994V6.83225V7.33225H21.494H24.9813H24.9813C26.5406 7.33215 28.0572 8.00566 29.2257 9.24316C30.2821 10.362 30.9809 11.8662 31.2033 13.5085H28.8606L29.2057 20.8625Z" fill="#6A7777" stroke="#6A7777"/>
</svg>
